<svg width="87" height="60" viewBox="0 0 87 60" fill="none" xmlns="http://www.w3.org/2000/svg">
    <path d="M18.0217 44L11.3817 32.6H6.98172V44H3.34172V16.12H12.3417C14.4484 16.12 16.2217 16.48 17.6617 17.2C19.1284 17.92 20.2217 18.8933 20.9417 20.12C21.6617 21.3467 22.0217 22.7467 22.0217 24.32C22.0217 26.24 21.4617 27.9333 20.3417 29.4C19.2484 30.8667 17.5951 31.84 15.3817 32.32L22.3817 44H18.0217ZM6.98172 29.68H12.3417C14.3151 29.68 15.7951 29.2 16.7817 28.24C17.7684 27.2533 18.2617 25.9467 18.2617 24.32C18.2617 22.6667 17.7684 21.3867 16.7817 20.48C15.8217 19.5733 14.3417 19.12 12.3417 19.12H6.98172V29.68Z" fill="white"/>
    <path d="M37.5577 41.68C38.8643 41.68 40.0643 41.4533 41.1577 41C42.2777 40.52 43.2243 39.8267 43.9977 38.92L45.5977 40.76C44.6643 41.88 43.5043 42.7333 42.1177 43.32C40.731 43.9067 39.1977 44.2 37.5177 44.2C35.3577 44.2 33.4377 43.7467 31.7577 42.84C30.0777 41.9067 28.771 40.6267 27.8377 39C26.9043 37.3733 26.4377 35.5333 26.4377 33.48C26.4377 31.4267 26.8777 29.5867 27.7577 27.96C28.6643 26.3333 29.9043 25.0667 31.4777 24.16C33.051 23.2533 34.8377 22.8 36.8377 22.8C38.7043 22.8 40.3843 23.2267 41.8777 24.08C43.3977 24.9333 44.5977 26.12 45.4777 27.64C46.3843 29.16 46.8643 30.8933 46.9177 32.84L29.6377 36.2C30.171 37.9067 31.131 39.2533 32.5177 40.24C33.931 41.2 35.611 41.68 37.5577 41.68ZM36.8377 25.24C35.371 25.24 34.051 25.5867 32.8777 26.28C31.731 26.9467 30.8243 27.8933 30.1577 29.12C29.5177 30.32 29.1977 31.7067 29.1977 33.28C29.1977 33.68 29.211 33.9733 29.2377 34.16L44.0777 31.28C43.7577 29.52 42.9443 28.08 41.6377 26.96C40.331 25.8133 38.731 25.24 36.8377 25.24Z" fill="#E06AFF"/>
    <path d="M61.8522 46.4077C62.5365 45.6574 62.5365 44.5093 61.8522 43.759L58.69 40.2917C56.2142 37.5769 56.2142 33.4231 58.69 30.7083L61.8522 27.241C62.5365 26.4907 62.5365 25.3426 61.8522 24.5923C61.0727 23.7376 59.7273 23.7376 58.9478 24.5923L54.1764 29.8241C51.2437 33.0398 51.2437 37.9602 54.1764 41.1759L58.9478 46.4077C59.7273 47.2624 61.0727 47.2624 61.8522 46.4077ZM74.1478 46.4077C73.4635 45.6574 73.4635 44.5093 74.1478 43.759L77.31 40.2917C79.7858 37.5769 79.7858 33.4231 77.31 30.7083L74.1478 27.241C73.4635 26.4907 73.4635 25.3426 74.1478 24.5923C74.9273 23.7376 76.2727 23.7376 77.0522 24.5923L81.8236 29.8241C84.7563 33.0398 84.7563 37.9602 81.8236 41.1759L77.0522 46.4077C76.2727 47.2624 74.9273 47.2624 74.1478 46.4077Z" fill="#6798FE"/>
</svg>
